<svg xmlns="http://www.w3.org/2000/svg" width="1330.8" height="221.8"><g fill="#100F12"><path d="M251.8 155.8L308.5 75h-54.4V51.8h88.6v20l-57.2 80.8h57.2v23.2h-90.9v-20zM422.8 175.8v-9.5c-2.3 3.6-6.1 6.3-11.2 8.3-4.9 2-9.4 2.9-13.3 2.9-11.3 0-21.2-4-29.9-12.1-8.6-8.1-13-18.7-13-31.7s4.3-23.4 13-31.5C377 94.1 386.9 90 398.3 90c7.9 0 18.7 3.1 24.5 11.2v-9.4h24.8v84.1h-24.8zm0-42.1c0-12.1-9.5-20-20.3-20-5.6 0-10.4 2-14.8 5.8-4.1 3.8-6.3 8.5-6.3 14.2 0 5.8 2.2 10.6 6.3 14.4 4.3 3.8 9.2 5.6 14.8 5.6 10.8-.1 20.3-8 20.3-20zM495.7 175.8h-25V91.7h25V112c4.1-14.6 14.2-22.1 23.8-22.1 5.6 0 10.3 1.1 14.4 3.1l-4.5 22.5c-3.4-1.6-7.7-2.5-12.8-2.5-13.9 0-20.9 11.2-20.9 33.5v29.3zM546.9 46h25v129.8h-25V46zM657.2 175.8v-9.5c-2.3 3.6-6.1 6.3-11.2 8.3-4.9 2-9.4 2.9-13.3 2.9-11.3 0-21.2-4-29.9-12.1-8.6-8.1-13-18.7-13-31.7s4.3-23.4 13-31.5S621.3 90 632.7 90c7.9 0 18.7 3.1 24.5 11.2v-9.4H682v84.1h-24.8zm0-42.1c0-12.1-9.5-20-20.3-20-5.6 0-10.4 2-14.8 5.8-4.1 3.8-6.3 8.5-6.3 14.2 0 5.8 2.2 10.6 6.3 14.4 4.3 3.8 9.2 5.6 14.8 5.6 10.8-.1 20.3-8 20.3-20z"/><g><path d="M52.1 189.5c.3 2.1 1.1 4.2 2.4 6.1.9 1.3 2.1 2.5 3.5 3.4 1.5.9 3.2 1.6 5.1 1.8.5.1.9 0 1.4 0 .5 0 .9-.1 1.4-.1.9-.1 1.9-.4 2.7-.8 1.7-.8 3.1-1.8 4.2-3.1 1.6-1.8 2.6-3.8 3.1-5.9.1-.6-.7-1-1.1-.5-1.3 1.7-2.7 3.2-4.3 4.4-1.1.8-2.2 1.5-3.4 1.8-.6.2-1.1.3-1.8.4-.3 0-.6.1-.9.1h-.9c-2.4-.2-4.7-1.5-6.6-3.3-1.4-1.4-2.7-3-3.9-4.7-.1-.6-1-.3-.9.4zM177.5 108c-1.4-.5-2.8-.8-4.2-1.1-2.9-.5-5.8-.6-8.7-.5-2.9.2-5.8.6-8.6 1.2-1.4.3-2.8.7-4.2 1.1-1.4.4-2.8.9-4.1 1.3-1.4.5-2.8 1-4.1 1.6l-2 .9-2 1c-1.3.6-2.6 1.4-3.9 2.1-.6.3-1.2.8-1.9 1.1l-1.8 1.2-1.8 1.3c-.6.4-1.2.8-1.8 1.3-1.1.9-2.3 1.8-3.4 2.8l-1.6 1.4c-.5.5-1 1-1.6 1.5-.5.5-1.1 1-1.6 1.5l-1.5 1.6-.7.8c-.2.3-.5.6-.7.8l-1.4 1.7c-.5.6-.9 1.2-1.3 1.8l-1.3 1.8-1.2 1.9-.6.9-.3.5c-.1.2-.2.3-.3.5l-1.1 1.9-.5 1c-.2.3-.3.7-.5 1-.6 1.3-1.3 2.6-1.8 4l-.8 2c-.2.7-.5 1.4-.7 2.1-.5 1.4-.9 2.8-1.2 4.2-.4 1.4-.7 2.8-1 4.2-1.1 5.7-1.6 11.6-.9 17.4.4 2.9 1 5.7 2 8.5.5 1.4 1.1 2.7 1.8 3.9.7 1.3 1.5 2.5 2.3 3.6-2.6-5.1-3.9-10.6-4-16.2-.1-5.5.7-11.1 2.1-16.4.7-2.7 1.6-5.3 2.5-7.9.2-.6.5-1.3.8-1.9l.8-1.9c.5-1.3 1.2-2.5 1.8-3.7 2.5-4.9 5.7-9.4 9.4-13.4l1.4-1.5 1.5-1.5c.5-.5 1-1 1.5-1.4l1.5-1.4c1-.9 2.1-1.8 3.2-2.7.5-.4 1.1-.8 1.6-1.3l1.7-1.2c4.5-3.2 9.4-5.9 14.5-8 1.3-.5 2.6-1.1 3.9-1.5 1.3-.5 2.6-.9 3.9-1.3 2.7-.8 5.4-1.5 8.1-1.9 2.7-.4 5.5-.6 8.3-.4 2.8.1 5.6.7 8.2 1.7-1-.9-2.3-1.5-3.7-2zM173.8 125.3c-.5 1.8.5 3.7 2.2 4.3 1.7.6 3.5-.4 3.9-2.2.5-1.8-.5-3.7-2.2-4.3-1.7-.7-3.4.4-3.9 2.2z"/><path d="M149.3 132.1c-.5 1.8.5 3.7 2.2 4.3 1.7.6 3.5-.4 3.9-2.2.5-1.8-.5-3.7-2.2-4.3-1.7-.6-3.4.4-3.9 2.2zM135.8 86.9c-.6 0-1.2-.3-1.5-.7v.7c.1 2.4 2 4.2 4.2 4.1 2.3-.1 4-2.1 3.9-4.5-.1-2.4-2-4.2-4.2-4.1-1.1 0-2 .5-2.7 1.3h.2c1 0 1.8.7 1.8 1.6 0 .7-.7 1.5-1.7 1.6zM96.6 65.5c.4 0 .8-.2 1.2-.5 3-2.9 8.6-2.7 10.4-1.4.9.6 2 .2 2.5-.9s.2-2.5-.7-3.1c-3.4-2.3-10.6-2-14.5 1.9-.8.8-.9 2.2-.3 3.2.3.5.8.8 1.4.8zM90.2 78.9c-.2.2-.3.5-.5.8l-.4.8c-.1.3-.2.6-.4.8-.1.3-.2.6-.3.8-.4 1.1-.6 2.3-.8 3.5l-.1.9v2.6c0 .6.1 1.1.1 1.7.1.6.2 1.1.3 1.7l.2.9c.1.3.2.6.2.9.2.6.4 1.1.6 1.7.5 1.1 1.1 2.2 1.9 3.1 1.6 1.9 3.7 3.2 5.8 4 2.2.8 4.4 1.2 6.7 1.2 2.2 0 4.5-.3 6.6-.8.5-.1 1.1-.3 1.6-.5l1.5-.6c1-.4 2-.9 2.9-1.5 1-.5 1.8-1.2 2.7-1.9l.6-.6c.2-.2.4-.4.5-.6.3-.4.6-.9.9-1.4.5-.9 1-1.9 1.3-2.9.1-.4.3-.8.4-1.1-.1.4-.2.8-.4 1.1-.4 1-.9 2-1.4 2.9-1.1 1.9-2.9 3.2-4.8 4.1-3.8 1.9-8.2 2.5-12.3 2-2.1-.3-4-.8-5.9-1.7-1.8-.8-3.4-2.1-4.5-3.6-.5-.8-1-1.6-1.3-2.5-.3-.9-.6-1.8-.7-2.8-.1-.5-.1-1-.2-1.5 0-.5-.1-1-.1-1.5v-2.2l.1-.7c.2-1.9.8-3.8 1.8-5.4 1-1.6 2.3-3.1 3.9-4.2 3.2-2.2 7.5-3.2 11.6-3.3 1 0 2.1.1 3.1.3 1 .2 2 .5 2.9 1 1.9.9 3.5 2.3 4.8 4 1.3 1.7 2.3 3.6 2.9 5.7.5 1.6.8 3.2.9 4.8 0-.6-.1-1.1-.1-1.7-.1-1.1-.4-2.1-.7-3.2-.6-2.1-1.5-4.1-2.7-5.9-1.2-1.8-2.8-3.4-4.7-4.6-1-.6-2-1.1-3.1-1.4-1.1-.4-2.2-.6-3.3-.7-.6-.1-1.1-.1-1.7-.1h-2.5l-.8.1c-.6.1-1.1.1-1.7.2l-1.7.4c-.6.1-1.1.3-1.7.5-.6.1-1.1.4-1.6.6-.3.1-.5.2-.8.4l-.5.5c-2 1.1-3.8 2.8-5.1 4.9z"/><path d="M99.3 93.6c-.8 0-1.5-.3-1.9-.9 0 .3-.1.5-.1.8.1 2.9 2.4 5.2 5.2 5.1 2.8-.1 5-2.6 4.9-5.6-.1-2.9-2.4-5.2-5.2-5.1-1.3.1-2.5.7-3.3 1.6h.2c1.2-.1 2.2.8 2.2 2 .1 1-.8 2-2 2.1zM130.4 76.5c.1-.2.2-.3.3-.5-.2.3-.4.6-.5.9l.2-.4zM131 75.6c-.1.1-.1.1 0 0-.1.1-.1.1 0 0zM131.7 91zM141.4 68.7h.5-.5zM149.1 72.5s.1 0 .1.1l-.1-.1zM144.3 69.2c-.1 0-.2 0-.3-.1.1 0 .2.1.3.1zM149 71.4zM138.1 95.8h.2-.2z"/><path d="M127.6 62.3c1.7 3.4 3.1 5.8 4.6 8.3 1-.6 4.5-1.6 4.5-1.6 0-.1 0-.1-.1-.2-1.3-2-2.3-3.8-3.6-6.1 3.1-1.7 7.6-1.4 9.1-.4.9.6 2 .2 2.5-.8s.2-2.2-.7-2.8c-2.9-1.8-8.7-1.8-12.8.4-2.2-3.9-5.1-7.2-8.6-9.9 1-.7 2.1-1.3 3.2-1.9 1.7-.9 3.4-1.6 5.2-2.3 1.8-.7 3.6-1.4 5.4-2.2 1.8-.8 3.6-1.7 5.3-2.9 1.7-1.2 3.3-2.7 4.5-4.4.3-.4.6-.9.9-1.3.3-.5.5-.9.8-1.4l.4-.8c.1-.3.2-.5.3-.8l.3-.8.2-.9c.2-1.1.2-2.3.1-3.5-.2-1.2-.5-2.3-1-3.4s-1.2-2.1-1.9-3c-.4-.4-.8-.9-1.3-1.2l-.7-.6-.8-.5-.4-.2c-.1-.1-.3-.1-.4-.2l-.8-.4c-.3-.1-.6-.2-.8-.3l-.9-.3c-.6-.1-1.2-.3-1.7-.3l-.8-.1h-.8c-2.3 0-4.5.5-6.5 1.3-1 .4-2 .9-2.9 1.5-.3-1.3-.9-2.7-1.9-4.1-2.8-4-6.6-5.2-11.1-3.5-1.9.7-3.8 1.9-5.7 3.4 0-1.1-.2-2.2-.4-3.2-.2-1.2-.6-2.3-1.1-3.5-.5-1.1-1.2-2.3-2.1-3.3-.4-.5-.9-1-1.5-1.4-.5-.4-1.1-.8-1.7-1.1-1.2-.6-2.6-1-3.9-1.1-1.3-.1-2.6 0-3.8.2-1.2.2-2.4.6-3.5 1.1-.6.2-1.1.5-1.6.8l-.4.2-.4.3-.8.9c-2.1 1.5-3.6 3.5-4.8 5.6-.8 1.4-1.4 2.9-1.9 4.3-1.9-4.5-4.3-7.5-7.9-7.2-4.5.4-7.6 2.8-9.4 7.2-1.8 4.4-2 10.5-1.3 16.8-4.2-6.3-7.9-10.7-13.6-9.4-3 .7-4.9 3-5.8 6-2.2 6.9-.1 15.9 4.5 25.4-4.9-4-9.1-6.3-13.5-5-3.3 1-4.8 4-5.3 7-.8 6 3.4 13.8 8.6 20.6-4.8-3.1-9.2-4.5-12.4-2.5-2.9 1.8-4 4.9-4 8-.1 4.8 2.8 10 6.9 15-4.1-2.5-7.8-3.5-10.7-1.2-2.4 1.9-3.7 4.4-3.8 7.3-.2 5.2 3.4 11.1 8 16.6-3.2-2.1-5.9-3.3-9.1-3-1.3.1-3 1.3-3.8 2.4-4.7 6.4.5 15.6 7.2 23.2-3.4-1.8-6.3-2.8-9.3-2.2-1.3.2-3 1.2-3.7 2.4-4 6.8.9 15.5 10.9 24.8-.5 1.5-.9 2.9-1.3 4.2-.7 2.2-2.4 11-2.7 13.9-.7 7.2 1.5 12.9 8 18.8 12.3 11 37.7 17.9 60.4 17.9 9 0 17.5-1.1 24.7-3.4 6.1-2 8.6-6.5 7.6-13.5-.2-.9-.4-.7-.4.2-.1 7.1-6 7.9-8.6 8.8-10.9 3.6-26.9 4.2-42.8 1.5-16.3-2.7-30-8.2-37.6-15.1-5.3-4.7-6.6-9.8-6.6-15.3 0-1.7 2.1-10.6 2.6-12.5 1.8-6.1 4.3-13 6.7-19.7 1.5 3.6 5.4 8.4 7.1 9.7.4.3.9-.2.7-.6-1.6-3.3-5-11.2-5.5-15.4 1.6-4.1 3.1-7.9 4.3-11.1.8 4.1 4.9 9.9 8.1 12.3.4.3 1-.2.8-.7-2.4-4.6-6.1-12-5.9-18.7v-.1c1.2-2.8 2.5-5.6 3.8-8.3 1.4 5.1 5 10.6 7.6 13.6.4.5 1.2 0 1-.5-1.8-5.4-4.1-14.4-4.6-21.3.5-1.1 1-2.1 1.6-3.2 0-.1.1-.1.1-.2 1-1.9 1.9-3.8 2.9-5.7 1.3 5 4.8 10.4 7.3 13.3.5.6 1.4.1 1.2-.6-1.6-5.1-3.8-13.6-4.4-20.2 1.1-2 2.2-4 3.3-5.9l.1-.1c0-.1.1-.1.1-.2v-.1c.6-1.1 1.3-2.2 1.9-3.2 1.4 4.5 5.3 10 7.7 12.7.5.6 1.5 0 1.2-.7C62.1 92 59.6 84 58.8 78c1.2-1.9 2.4-3.8 3.6-5.5.8-1.2 1.6-2.4 2.4-3.4l.2-.2c1.3 4.2 4.9 9.2 7.1 11.7.5.6 1.4.1 1.2-.7-1.2-4.3-3.1-11.4-3.8-17.1.2-.2.3-.4.5-.6 0-.1.1-.1.1-.2 3.4-4.9 8.3-8.9 14.3-11.6h.2c5.2-2.7 10.8-3.5 15.3-3.5 6.7 2.7 13.7 8.8 17 15.5.3.6 1.2.4 1.2-.3-.2-4.6-.6-9-2.3-12 4.1 2.5 8.7 6.1 11.8 12.2zM6.3 151.8c-1.1-2.7-.8-7.2 0-8.6.1 6.8 5 13.4 6.6 14.5-1.4-.3-5.1-2.1-6.6-5.9zm6-21.4c-1.5-3-1.7-8.2-1.1-9.9 1 7.8 7 14.9 8.8 15.9-1.6-.2-5.6-1.8-7.7-6zm6.6-19.9c-1.8-3.5-2-9.4-1.2-11.4 1.1 9 8.2 17.1 10.4 18.2-1.8-.2-6.8-2-9.2-6.8zM27 88.1c-1.8-3.5-2-9.4-1.2-11.4 1.1 9 8.2 17.1 10.4 18.2-1.7-.1-6.7-2-9.2-6.8zM34.7 65c-1.7-4-1.3-10.5-.2-12.6.3 9.9 7.6 19.5 10 21-2-.4-7.4-2.9-9.8-8.4zM48 41.2c-1.1-4.8.1-11.9 1.6-14.1-1.1 11.3 4.6 24.6 6.7 26.7-2.9-1.5-6.8-6.1-8.3-12.6zm19.3-15.6c-.2-4.9 2.5-11.6 4.3-13.5-3.4 10.9-.4 25.1 1.3 27.5-2.5-2-5.4-7.3-5.6-14zM82 44.2c-.1-.3-.3-.5-.4-.8-.1-.3-.2-.5-.3-.8l-.7-1.7c-.2-.6-.4-1.1-.6-1.7-.7-2.3-1.2-4.6-1.5-7-.3-2.4-.4-4.8-.2-7.2.1-1.2.2-2.4.5-3.6.3-1.2.5-2.4 1.1-3.4-.2 1.2-.3 2.3-.4 3.5v3.6c.1 2.3.2 4.7.5 7s.7 4.6 1.1 6.9c.4 2.3 1.1 4.6 1.6 6.9-.2-.6-.5-1.1-.7-1.7zm22.2-23.6c-1 3.9-2.9 7.8-4.5 11.8l-1.2 3c-.4 1-.7 2.1-1 3.1-.1.3-.2.7-.3 1-.4 1.1-.8 2-1.1 3-1.3.1-2.6.3-3.9.5.4-4.5 1.4-7.6 2.4-10.9 4.2-13.9-4.7-13.7-6.5-7.2-1.8 6.3-1.2 14.3-.1 19.2-1.4.4-2.8 1-4.3 1.6-.2-1.2-.4-2.4-.5-3.7-.1-1-.2-2.1-.3-3.1-.1-1-.1-2.1-.2-3.2-.1-2.1-.1-4.2 0-6.3.1-2.1.2-4.2.5-6.2s.7-4.1 1.2-6c.6-1.9 1.3-3.8 2.2-5.4.9-1.6 2.1-3.1 3.5-4.1l.5-.4h.4l.3-.2 1.2-.6c.8-.4 1.7-.7 2.6-.8 1.7-.4 3.5-.3 4.9.3.4.2.7.4 1 .6.3.2.6.5.9.8.6.6 1 1.3 1.4 2.1.4.8.7 1.7 1 2.6.2.9.4 1.8.4 2.8.2 1.8 0 3.8-.5 5.7zm5.9 20c-.4-3 .8-8.8 5-14 2.9-3.6 7.9-7.4 10.4-7.5-9.4 5.4-15 18.7-15.4 21.5zm8.7 6.3c2.8-2.9 5.2-4.6 7.8-6.4 11-7.7 4.5-12.6-.6-9-4.9 3.5-8.9 9.5-11 13.6-.9-.4-1.8-.7-2.7-1 1.1-2.8 2.6-5.5 4.2-8.1 2-3.1 4.3-6.1 6.9-8.7 1.3-1.3 2.7-2.5 4.1-3.5 1.4-1 3-1.9 4.5-2.5 1.6-.6 3.2-1 4.8-1h.6l.6.1c.4 0 .7.1 1.1.2.2 0 .4.1.5.2.2.1.4.1.5.2l.5.2c.1 0 .2.1.3.1l.2.1c.2.1.3.2.5.3l.4.3c.3.2.5.5.8.7.5.6 1 1.1 1.3 1.8.4.6.5 1.4.7 2.1.1.7.1 1.5 0 2.2 0 .2 0 .4-.1.6l-.1.6c-.1.2-.1.4-.2.6l-.2.6c-.1.4-.3.8-.5 1.1l-.3.6-.3.6c-.9 1.5-2.1 2.7-3.4 3.9-2.7 2.3-6.2 4-9.5 5.9-2.8 1.6-5.6 3.5-7.9 5.8-1.1-.9-2.3-1.6-3.5-2.2z"/><path d="M77.5 221.8c-24 0-49.1-7.4-60.9-18.1-6.5-5.9-9.1-11.9-8.3-19.5.3-3 2.1-11.8 2.7-14 .4-1.2.7-2.4 1.2-3.8-11-10.3-14.6-18.9-10.7-25.5.8-1.4 2.8-2.5 4.3-2.8 2-.4 4-.1 6.5.8-4.8-6-9.7-14.9-4.9-21.4.9-1.2 2.8-2.6 4.3-2.8.4 0 .8-.1 1.1-.1 1.8 0 3.4.5 4.9 1.1-3.9-5.3-5.8-10-5.7-14 .1-3.2 1.5-5.8 4.1-7.9 1.2-.9 2.6-1.4 4.1-1.4 1.3 0 2.7.3 4.3 1-3.3-4.7-5-9-4.9-12.8 0-4 1.6-7 4.4-8.7 1.1-.7 2.4-1 3.8-1 1.8 0 3.8.6 6.2 1.7-3.8-5.5-7.3-12.4-6.5-18.2.6-4 2.6-6.7 5.8-7.7.9-.3 1.8-.4 2.8-.4 2.7 0 5.5 1.1 8.9 3.5-4-9.3-5.1-17-3.2-23 1.2-3.6 3.4-5.8 6.4-6.5.7-.2 1.4-.2 2.1-.2 4.4 0 7.6 3.3 10.6 7.5-.3-5.9.2-10.7 1.6-14.2 1.9-4.7 5.3-7.3 10.1-7.7h.5c3.6 0 5.9 3 7.4 6 .4-.9.8-1.8 1.3-2.6C83.3 6.7 85 4.8 87 3.4l1.3-.8.4-.2c.5-.3 1.1-.6 1.7-.8C91.7 1 92.9.7 94.1.4c1.4-.3 2.8-.4 4.1-.2 1.5.1 2.9.5 4.2 1.1.7.3 1.4.8 1.9 1.2.7.6 1.2 1 1.6 1.5.9 1 1.6 2.1 2.2 3.5.5 1.2.9 2.3 1.1 3.6.1.7.2 1.3.3 1.9 1.7-1.2 3.3-2.1 4.7-2.7 1.4-.5 2.7-.8 4-.8 3.1 0 5.9 1.6 8 4.6.8 1.1 1.3 2.2 1.7 3.3.7-.4 1.4-.7 2.1-1 2.2-.9 4.5-1.4 6.8-1.4h1l.9.1c.5 0 1 .1 1.4.2.1 0 .3.1.4.1.2 0 .5.1.7.2.1 0 .2.1.3.1.1 0 .2.1.3.1.2.1.4.1.6.2l1 .5c.1.1.2.1.3.2l1.2.8.7.6c.4.3.7.6 1 1l.3.3c.9 1.1 1.6 2.1 2.1 3.1.6 1.2.9 2.6 1.1 3.6v.1c.1 1.5.1 2.7-.1 3.8l-.2.9-.3.8c0 .1-.1.2-.1.3-.1.2-.1.4-.2.6l-.4.8-.6 1.2-.3.4c-.3.4-.5.9-.9 1.3a22.8 22.8 0 01-4.7 4.6c-1.5 1.1-3.2 2-5.5 3-1.4.6-2.8 1.2-4.2 1.7-.4.2-.8.3-1.2.5-1.7.7-3.5 1.4-5.1 2.3-.7.4-1.4.8-2.2 1.2 3 2.4 5.6 5.4 7.5 8.8 2-1 4.4-1.5 6.9-1.5 2.4 0 4.5.5 6 1.4 1.2.8 1.7 2.5 1 3.8-.5.9-1.4 1.5-2.3 1.5-.5 0-.9-.1-1.3-.4-.5-.3-1.7-.7-3.5-.7-1.5 0-3 .3-4.2.8 1 1.9 2 3.5 3.1 5.3.1.1.1.3.2.5l.1.7-.7.2c-1.3.3-3.6 1.1-4.3 1.5l-.7.4-.4-.7c-1.6-2.5-2.9-4.9-4.7-8.3-2.3-4.5-5.5-8-9.7-10.5 1 3 1.3 6.7 1.4 10.1 0 .4-.1.8-.4 1.1-.3.3-.7.4-1.1.4-.5 0-1-.3-1.3-.8-3-6.2-9.7-12.3-16.4-15-5.6.1-10.6 1.2-14.8 3.4h-.1-.1c-5.9 2.6-10.7 6.5-14 11.3l-.2.2-.3.3c.8 6 2.8 13.6 3.7 16.6.1.5 0 .9-.2 1.3-.3.4-.7.6-1.2.6-.4 0-.8-.2-1.1-.5-1.8-2-5.1-6.3-6.8-10.5-.5.7-1.1 1.5-1.6 2.4-1.1 1.6-2.3 3.4-3.4 5.2.8 5.4 3 13 4.8 18.2.2.5.1 1-.2 1.4-.3.4-.8.7-1.3.7-.4 0-.8-.2-1.1-.5-2.1-2.3-5.5-7-7.3-11.4-.4.6-.7 1.2-1 1.7l-.1.1s0 .1-.1.1l.1.1c-1 1.8-2.1 3.7-3.2 5.7.6 6.2 2.6 14.3 4.4 19.8.1.5.1.9-.2 1.3-.3.4-.7.6-1.2.6-.4 0-.8-.2-1.1-.5-2.3-2.7-5.2-7.2-6.8-11.7-.7 1.3-1.4 2.7-2 4 0 0-.1.1-.1.2l-1.5 3c.5 6.7 2.8 15.4 4.6 20.9.1.4.1.9-.2 1.2-.3.4-.7.6-1.1.6-.4 0-.8-.2-1-.5-2.4-2.8-5.5-7.4-7.1-12-1 2.2-2 4.3-2.9 6.4-.1 6.4 3.3 13.4 5.8 18.2.2.4.2.9 0 1.3s-.7.6-1.1.6c-.3 0-.6-.1-.8-.3-2.8-2.1-6.2-6.5-7.8-10.5-.9 2.3-2.1 5.3-3.4 8.7.5 3.9 3.6 11.2 5.4 14.9.2.4.2.9-.1 1.2-.2.4-.7.6-1.1.6-.3 0-.5-.1-.7-.2-1.7-1.2-4.8-5-6.6-8.3-2.5 6.9-4.5 12.9-6 17.9-.6 1.9-2.6 10.7-2.6 12.3 0 6.3 1.9 10.7 6.3 14.7 7.5 6.8 21.1 12.2 37.2 14.9 6.5 1.1 13 1.6 19.4 1.6 8.9 0 16.9-1.1 23.1-3.1.3-.1.6-.2 1-.3 3-.9 7-2.1 7.1-7.8 0-.5 0-1.6 1-1.6.8 0 .9.9 1 1.3 1.1 7.4-1.6 12.3-8.1 14.4-7.1 2.2-15.7 3.4-25.1 3.4zM7.6 139.6c-.5 0-1 0-1.5.1-1.1.2-2.6 1.1-3.2 2-3.5 5.9.2 14 10.8 23.8l.4.3-.2.5c-.5 1.5-.9 2.9-1.3 4.2-.6 2.1-2.4 10.8-2.7 13.7-.7 7.1 1.6 12.6 7.7 18.1C29.2 212.7 53.8 220 77.5 220c9.2 0 17.7-1.2 24.4-3.4 4.2-1.4 6.5-4 7.1-7.9-1.7 3.1-5.1 4.1-7.1 4.7l-.9.3c-6.4 2.1-14.5 3.2-23.6 3.2-6.4 0-13-.6-19.6-1.6-16.4-2.7-30.3-8.3-38-15.3-6.1-5.5-6.8-11.4-6.8-15.9 0-1.9 2.1-10.9 2.7-12.7 1.6-5.5 3.9-12.1 6.7-19.7l.7-1.9.8 1.9c1.2 2.8 3.9 6.5 5.7 8.3-1.6-3.5-4.4-10.3-4.9-14.2v-.2l.1-.2c1.8-4.8 3.4-8.6 4.3-11.1l1-2.5.5 2.7c.7 3.5 3.9 8.2 6.7 10.9-2.5-4.9-5.5-11.6-5.3-17.8v-.2l.1-.2c1.2-2.7 2.5-5.5 3.8-8.3l.9-2 .6 2.1c1.2 4.4 4.2 9.2 6.7 12.4-1.8-5.7-3.8-13.9-4.3-20.3v-.2l.1-.2c.5-1.1 1-2.1 1.6-3.2 0 0 0-.1.1-.1.9-1.9 1.9-3.8 2.9-5.7l1-1.8.5 2c1.1 4.3 4.1 9.3 6.7 12.5-1.7-5.7-3.7-13.6-4.3-19.7v-.2l.1-.2c1.1-2.1 2.3-4.1 3.3-6l.1-.1c0-.1.1-.1.1-.2.6-1 1.2-2 1.9-3.2l.9-1.5.5 1.7c1.4 4.4 5 9.5 7.3 12.2-1.1-3.1-3.9-11.7-4.8-18.5v-.3l.2-.2c1.2-1.9 2.5-3.8 3.6-5.5.9-1.3 1.6-2.4 2.4-3.5l1.1-1.5.5 1.6c1.1 3.7 4.2 8.3 6.7 11.1-.9-3.3-3-10.8-3.7-16.8v-.3l.4-.5c.1-.1.2-.2.3-.4l.1-.1c3.4-5 8.5-9.1 14.7-11.8h.1c.1 0 .1-.1.2-.1l-2-3.7c-.3-.5-.5-1-.8-1.6l-.3-.6-.1-.2c-.1-.2-.2-.4-.2-.6l-.1-.3-.7-1.7c-.1-.4-.3-.8-.4-1.2-.1-.2-.1-.4-.2-.6-.7-2.4-1.3-4.8-1.5-7.2-.3-2.6-.4-5-.2-7.3.1-1.1.2-2.3.5-3.7.3-1.2.6-2.5 1.2-3.6l1.3-2.3-.9-1.6c-2-4.6-4.1-6.8-6.7-6.8h-.4c-4.1.3-7.1 2.6-8.8 6.7-1.6 3.9-2 9.4-1.3 16.4l.3 3.2-1.8-2.7c-4-6-7-9.3-11-9.3-.6 0-1.2.1-1.8.2-3.1.7-4.5 3.3-5.2 5.4-2 6.2-.5 14.6 4.5 24.8l1.6 3.3-2.8-2.4c-4.3-3.6-7.5-5.2-10.5-5.2-.8 0-1.6.1-2.3.3-3.5 1.1-4.5 4.4-4.7 6.4-.7 4.9 2.3 12 8.4 20l2.7 3.6-3.7-2.1c-3.5-2.2-6.4-3.3-8.6-3.3-1.1 0-2.1.3-3 .8-3 1.8-3.6 5-3.6 7.4-.1 4.1 2.2 9 6.7 14.5l2.8 3.4-3.8-2.3c-2.7-1.6-4.8-2.4-6.6-2.4-1.2 0-2.2.4-3.2 1.1-2.2 1.8-3.4 4-3.5 6.7-.2 4.3 2.5 9.7 7.8 16.1l3.5 4.1-4.5-3c-3.6-2.4-6-3.1-8.6-2.9-1 .1-2.5 1.1-3.2 2.1-5 6.8 2.4 16.8 7.2 22.2l3 3.3-4-2.1c-3.1-1.4-5.3-2.1-7.3-2.1zm105.9-91l2.3 1.1c5.5 2.7 9.7 6.8 12.5 12.2 1.6 3.1 2.8 5.3 4.2 7.6.9-.4 2.1-.8 3-1-1.1-1.7-2.1-3.4-3.1-5.4l-.4-.7.7-.4c1.5-.8 3.5-1.3 5.6-1.3 1.8 0 3.4.3 4.3.9.5.3 1.1.1 1.4-.5.3-.6.1-1.4-.4-1.7-1.2-.8-3.1-1.2-5.2-1.2-2.4 0-4.9.6-6.8 1.6l-.7.4-.4-.7c-2.1-3.8-4.9-7-8.4-9.6l-.4-.3c-1.1-.8-2.2-1.5-3.4-2.1l-.9-.5.7-.8c2.9-3 5.3-4.7 7.9-6.5 4.8-3.3 6-6 5.6-7.4-.3-.8-1.1-1.3-2.3-1.3-1 0-2.1.4-3 1.1-4.6 3.3-8.6 9.1-10.7 13.3l-.3.7-.7-.3c-.9-.3-1.8-.7-2.7-.9l-.8-.3.3-.8c1.1-2.6 2.5-5.3 4.3-8.2 2.2-3.4 4.6-6.4 7-8.8 1.4-1.4 2.8-2.6 4.2-3.6 1.5-1.1 3.1-2 4.7-2.6 1.6-.7 3.3-1 5-1H137.2l.6.1c.3 0 .6.1.9.1.1 0 .2 0 .3.1.2 0 .4.1.5.1h.2c.1 0 .1 0 .2.1.1 0 .3.1.4.1l.6.3c.1 0 .2.1.2.1l.3.2c.2.1.3.2.4.3l.1.1.4.3c.3.2.5.4.6.5.1.1.2.2.3.2l.1.1c.5.5 1 1.2 1.4 2 .4.7.6 1.6.8 2.3v.1c.1.7.2 1.6 0 2.5 0 .1 0 .3-.1.5v.2l-.1.6v.2c0 .1-.1.3-.2.5l-.2.5c-.1.3-.3.6-.4.9 0 .1-.1.2-.1.3-.1.1-.1.3-.2.4 0 .1-.1.1-.1.2l-.1.1c-.1.2-.2.3-.3.5-.9 1.4-2.1 2.8-3.6 4.1-2.2 1.9-4.8 3.3-7.5 4.8l-2.1 1.2c-1 .6-2 1.2-2.9 1.7 1-.5 2.1-.9 3.1-1.3.4-.2.8-.3 1.2-.5 1.4-.5 2.8-1.1 4.2-1.7 2.1-.9 3.8-1.8 5.2-2.8 1.7-1.1 3.2-2.6 4.4-4.2.3-.4.5-.8.8-1.2l.2-.4c.2-.4.4-.7.6-1.1l.4-.8c.1-.1.1-.3.2-.4 0-.1.1-.2.1-.3l.2-.8.2-.8c.2-.9.2-2 .1-3.3-.2-.9-.4-2.1-.9-3.2-.4-.9-1-1.8-1.8-2.7l-.3-.3c-.3-.3-.6-.6-.9-.8l-.7-.5-1.1-.7s-.1-.1-.2-.1l-.9-.4c-.1-.1-.3-.1-.5-.2-.1 0-.2-.1-.3-.1-.1 0-.2-.1-.3-.1-.2-.1-.3-.1-.4-.1-.2 0-.3-.1-.4-.1-.4-.1-.8-.2-1.2-.2l-.8-.1H137c-2.1 0-4.2.5-6.2 1.3-.9.4-1.9.9-2.8 1.4l-1 .6-.1-.5-.8.5c-9.1 5.2-14.6 18.2-15 20.9l-.8 5.7-.8-5.7c-.5-3.4.9-9.4 5.1-14.6 2.9-3.6 8.1-7.7 11-7.8h1c-.3-1.1-.8-2.2-1.6-3.3-1.8-2.6-4.1-3.9-6.7-3.9-1.1 0-2.2.2-3.4.7-1.7.6-3.5 1.7-5.5 3.3l-1.3 1v-1.7c0-.9-.1-1.9-.3-3.1-.2-1.2-.6-2.3-1-3.3-.5-1.2-1.2-2.2-1.9-3.1-.3-.4-.8-.8-1.4-1.3-.4-.3-1-.7-1.6-1-1.1-.5-2.3-.9-3.6-1-1.2-.1-2.4 0-3.6.2-1.1.2-2.2.6-3.4 1.1-.6.3-1.1.5-1.6.8l-.4.2-1.2.8C86.2 6 84.6 7.7 83.3 10c-.7 1.2-1.2 2.5-1.8 3.9l-.9 4.3c-.2 1.1-.3 2.1-.3 3.4v3.5c.1 2.3.2 4.6.5 6.9.3 2.5.7 4.8 1.1 6.8 0 .2.1.4.1.6v-.3c-.1-1.1-.1-2.2-.2-3.2-.1-2.5-.1-4.5 0-6.4.1-2.2.3-4.3.5-6.3.3-2.1.7-4.2 1.3-6.1.6-2.1 1.4-4 2.3-5.6 1.1-1.8 2.3-3.3 3.8-4.3l.9-.6.3-.2c.4-.2.8-.4 1.3-.7 1-.4 1.9-.7 2.8-.9.7-.2 1.5-.2 2.2-.2 1.2 0 2.2.2 3.2.7.4.2.8.4 1.1.6.3.3.7.5 1 .9.6.6 1.1 1.4 1.6 2.3.4.8.8 1.8 1 2.8.3 1.1.4 2.1.5 2.9.1 1.8-.1 3.8-.7 6-.8 3.1-2.1 6.1-3.4 9.1-.4.9-.8 1.9-1.2 2.8-.4.9-.8 2-1.2 3-.4 1-.7 2.1-1 3.1-.1.3-.2.6-.3 1v.1c-.5 1.1-.8 2.1-1 2.9l-.1.5h-.6c-1.3.1-2.6.3-3.8.5l-1 .2.1-1c.4-4.6 1.4-7.8 2.4-11.1 1.9-6.3.8-8.8.2-9.6-.4-.5-.9-.8-1.6-.8-1.3 0-3 1.3-3.7 3.7-1.8 6.1-1.1 13.9-.1 18.8l.2.7-.7.2c-1.4.4-2.8 1-4.2 1.6l-.2.1.7 3.1c4.3-2.1 9.4-3.2 15.1-3.3h.2l.1.1c6.9 2.8 13.7 8.8 17 15.2-.2-3.9-.6-8.1-2.2-10.9l-1.1-2.2zm6.6-1.9c.7.4 1.4.9 2.1 1.3 1.9-1.9 4.3-3.6 7.6-5.4l2.1-1.2c2.7-1.5 5.2-2.9 7.3-4.6 1.3-1.2 2.4-2.4 3.3-3.7.1-.1.2-.3.2-.4l.1-.1c0-.1.1-.1.1-.2.1-.1.1-.2.2-.3 0-.1.1-.2.1-.3.1-.3.3-.5.3-.8l.2-.6c0-.1 0-.2.1-.2 0-.1 0-.2.1-.3l.1-.5c0-.2 0-.4.1-.5.1-.7.1-1.3 0-2-.1-.6-.3-1.3-.6-1.8V25c-.3-.6-.7-1.1-1.1-1.6l-.3-.3-.4-.4h-.1l-.4-.3c-.1-.1-.3-.2-.4-.3l-.2-.1h-.1s-.1 0-.1-.1l-.5-.2s-.1 0-.2-.1c-.1 0-.1 0-.2-.1-.1 0-.2 0-.2-.1h-.1c-.1 0-.3-.1-.4-.1-.2 0-.4-.1-.6-.1l-.6-.1h-.5c-1.5 0-3 .3-4.4.9-1.4.6-2.9 1.4-4.4 2.4-1.3 1-2.7 2.1-4 3.4-2.4 2.4-4.7 5.2-6.8 8.5-1.6 2.5-2.9 4.9-3.8 7.2.4.1.9.3 1.3.5 2.3-4.4 6.2-9.9 10.9-13.3 1.2-.9 2.6-1.4 4-1.4 1.9 0 3.3.9 3.8 2.4.4 1.2.5 4.6-6.2 9.2-2.7 1.8-4.9 3.4-7.4 5.8zM91.5 7.9l-.8.5c-1.2.9-2.3 2.2-3.3 3.8-.9 1.5-1.6 3.3-2.2 5.2-.5 1.8-.9 3.8-1.2 5.9-.3 1.9-.4 4-.5 6.1-.1 1.8-.1 3.8 0 6.2 0 1 .1 2 .2 3.1s.2 2.1.3 3.1c.1.9.2 1.8.4 2.6.9-.4 1.8-.7 2.7-1-1-5.3-1.5-12.8.3-18.8.8-2.8 3-4.8 5.2-4.8 1.1 0 2.1.5 2.8 1.5 1.1 1.5 2 4.6 0 11-.9 3-1.8 5.9-2.2 9.8l2.4-.3c.2-.8.5-1.6.9-2.5.1-.3.2-.6.3-1 .3-1 .6-2.1 1-3.2S98.6 33 99 32c.4-1 .8-1.9 1.2-2.9 1.3-3 2.5-5.9 3.3-8.8.5-2.1.7-3.9.6-5.6 0-.8-.2-1.6-.4-2.6-.2-.9-.5-1.7-.9-2.4-.4-.8-.8-1.4-1.3-1.9-.2-.3-.5-.5-.8-.7-.3-.2-.6-.4-.9-.5-.7-.3-1.6-.5-2.5-.5-.6 0-1.2.1-1.9.2-.8.2-1.6.4-2.4.8-.5.2-.8.4-1.2.6l-.3.2zm26 17.2c-.7.7-1.3 1.3-1.8 2-1.7 2.1-2.8 4.3-3.6 6.3 1.3-2.6 3.1-5.6 5.4-8.3zM17.1 159.5l-4.4-1.1c-1.4-.3-5.4-2.1-7.1-6.3-1.2-3-.9-7.7 0-9.3l1.4-2.6.1 3c.1 6.3 4.7 12.8 6.2 13.8l3.8 2.5zm-10.7-11c.1 1.1.3 2.1.6 3 .6 1.4 1.4 2.5 2.4 3.3-1.1-1.7-2.3-3.9-3-6.3zm17.7-10.6l-4.3-.7c-1.5-.2-6-1.8-8.3-6.4-1.7-3.3-1.8-8.7-1.1-10.6l1.1-3 .4 3.2c.9 7.4 6.7 14.4 8.4 15.3l3.8 2.2zm-12.3-11.7c.2 1.4.6 2.8 1.1 3.9.9 1.8 2.1 3 3.4 3.9-1.5-2-3.3-4.8-4.5-7.8zm20.6-7.4l-4.4-.6c-1.7-.2-7.1-2.1-9.8-7.3-2-3.8-2.1-9.9-1.2-12l1.2-2.8.4 3c1 8.4 7.9 16.5 10 17.6l3.8 2.1zm-14.3-14.5c.2 2 .6 4.2 1.5 5.8 1.3 2.4 3.1 4 4.9 5-2.3-2.5-4.9-6.4-6.4-10.8zm22.5-7.8l-4.4-.6c-1.7-.2-7.1-2.1-9.8-7.3-2-3.8-2.1-9.9-1.2-12l1.2-2.8.4 3c1 8.4 7.9 16.5 10 17.6l3.8 2.1zM26.3 81.9c.2 2 .6 4.2 1.5 5.8 1.3 2.4 3.1 4 4.9 5-2.3-2.5-4.9-6.4-6.4-10.8zm22.6-6.6l-4.5-1c-1.9-.4-7.9-3-10.4-8.9-1.9-4.3-1.4-11-.1-13.3l1.4-2.6.1 2.9c.3 10 7.8 19.2 9.6 20.4l3.9 2.5zM34.4 57.2c-.1 2.5.2 5.4 1.1 7.5 1.3 3.1 3.7 5.1 5.7 6.4-2.5-3.1-5.5-8.2-6.8-13.9zm26.5-.2l-5-2.6c-3.1-1.6-7.1-6.4-8.7-13.1-1.1-4.7 0-12.2 1.7-14.7l1.8-2.8-.3 3.3c-1.1 10.8 4.4 24 6.5 26l4 3.9zM48.7 32.7c-.4 2.7-.5 5.8.1 8.3.9 3.8 2.6 6.8 4.3 8.9-.8-1.7-1.5-3.7-2.2-5.8-1-3-1.9-7.1-2.2-11.4zm28.1 11l-4.4-3.6c-2.7-2.2-5.7-7.6-5.9-14.5-.2-4.8 2.4-11.9 4.5-14.1l2.3-2.4-1 3.2c-3.2 10.4-.5 24.4 1.2 26.8l3.3 4.6zm-7.2-26.3C68.7 20 68 23 68 25.6c.1 3.9 1.2 7.2 2.4 9.6-.4-1.8-.8-3.9-1-6.1-.2-3.1-.3-7.3.2-11.7zM153.6 77.5zM150 72.2l-.3-.3c0 .1.2.2.3.3zM143.1 94.1zM149.2 92.5c.1 0 .1-.1.2-.1 0 0-.1 0-.2.1zM139.9 95.7c.9-.1 1.7-.2 2.5-.3-.9.2-1.8.3-2.5.3zM139.5 95.8h0zM149.6 72.8c-.1-.1-.2-.2-.3-.2.1.1.2.2.3.2zM150.4 72.6l-.1-.1-.1-.1c0 .1.1.1.2.2zM151.3 91.3c-.1.1-.3.2-.4.3.3-.2.4-.3.4-.3z"/><path d="M132.9 70.2s-9 4.7-6.3 16.1c0 0 1.4 9.1 12.4 9.2 0 0 6.9.4 13.1-4.3 0 0 2.1-1 3-4.8 0 0-.7 3.2-3.2 4.6 0 0-2.3 1.6-5.5 2.4 0 0-6.6 1.8-11.8-1 0 0-5.2-2-5.2-8.8 0 0-1-6.6 4.5-10.6 0 0 8.1-5.6 15.7-.6 0 0 5.1 3.3 5.7 10.5 0 0-.3-9.7-8.7-13.3 0 0-3.6-1.8-9.5-.8.3-.2-3.3.8-4.2 1.4zM71.9 167.2c-1.5 0-2.8 1-3.8 2-.1-1.6-.7-3.1-1.5-4.2-1.1-1.3-2.6-1.9-4.4-1.7-1.3.1-2.4.9-3.2 2.3-1.9 3.2-1.8 9.5.1 13.9 1.2 2.7 3.5 5.6 6.4 5.6 2.4 0 4.6-1.9 6.3-5.7.6-1.4 1.3-2.6 1.9-3.6 1.6-2.9 2.9-5.2 1.1-7.1-.8-1-1.8-1.5-2.9-1.5zm.5 7.7c-.6 1.1-1.3 2.3-2 3.7-1.5 3.2-3.2 4.8-4.9 4.8-1.7 0-3.7-1.8-4.9-4.6-1.7-3.9-1.8-9.6-.2-12.4.5-.9 1.2-1.4 2-1.5h.5c1 0 1.9.4 2.5 1.2 1 1.3 1.5 3.5 1.1 5.6l-1 5.2 2.5-4.6c.5-1 2.2-3.4 4-3.4.6 0 1.2.3 1.8.9.9.9.2 2.3-1.4 5.1z"/><path d="M206.8 125.3c-7.8-14.9-18.9-20-30.7-25.4-5.5-2.5-16.3-9-20.1-11.4 0 0-.2.8-1.4 2.6.2-.3.5-.6.6-.9 6.8 5.1 13.6 8.2 20.2 11.2 11.5 5.3 22.3 10.2 29.9 24.6 6.5 12.3 8 26.3 4.4 39.5-3.8 13.7-12.8 25.2-26 33.4-3.3 2.1-21.1 12.4-42 12.4-11.5 0-21.9-3.1-31.1-9.3-.2-.1-.4-.3-.7-.5-1.2-.8-3.5-2.2-5.1-3.7l-.1-.1-.1-.1c-.2-.1-.3-.2-.4-.3-6.1-6.9-12.8-17.2-18.4-28.1l-.3-.7-.7.3c-3.9 1.6-7.2 7-10.4 12.2-2.5 4-5.1 8.2-7.2 9-.9.3-1.8.5-2.6.5-4.5 0-7-4.7-8.3-8.7-2.5-7.8-2.5-19.5 0-30.4 2.8-12.4 8.3-22.1 15.4-27.2l.3-.2v-.4-3.1l-1.2.8c-.6.4-1.2.8-1.8 1.3-.5.3-1.7 1.3-2.6 2 .3-1 .7-2 1.3-2.9 1.2-1.8 2.6-3 4.4-3.6.2 0 .3-.1.5-.1.4-.1.7-.2 1.1-.2H74.6c.3 0 .6 0 .8.1h.1c1 .1 2 .6 2.9 1.4.9.8 1.5 1.8 1.8 2.9-.9-.9-1.8-1.5-2.7-1.9-.6-.2-1.1-.4-1.6-.4l-1.4-.2.5 1.3c.1.2.1.4.1.7-.3 24.1 17.1 56.4 29.5 71.5l.1.1c10.3 9.9 22.8 15 37.1 15 20.1 0 37.1-9.9 40.3-11.9 24.7-15.4 33.4-44.3 20.5-68.8-7.1-13.5-17-18-28.5-23.3-6.7-3.1-13.6-6.2-20.7-11.5-.3.4-.6.8-1 1.2 7.2 5.4 14.2 8.6 21.1 11.7 11.2 5.1 20.9 9.6 27.7 22.6 12.5 23.7 4.1 51.7-19.9 66.7-3.1 2-19.8 11.7-39.4 11.7-13.8 0-25.9-4.9-36-14.5-12.3-15-29.4-46.7-29.2-70.4h.1c.8.4 1.6 1 2.4 1.8.3.3.7.5 1.1.5.4 0 .9-.2 1.2-.6.3-.3.4-.8.3-1.2-.3-1.5-1.1-2.9-2.3-4.1-.8-.7-2.1-1.5-3.7-1.8-.3-.1-.7-.1-1.1-.1H73.8c-.5 0-1 .2-1.4.3-.2 0-.3.1-.5.1h-.1c-2.1.7-3.8 2.1-5.2 4.2-.9 1.3-1.5 2.8-1.8 4.4-.1.4 0 .9.3 1.2.4.5 1.1.6 1.6.3-12.9 13.8-16.2 41.3-11.6 55.6 2 6.3 5.5 9.8 9.8 9.8 1 0 2.1-.2 3.2-.6 2.7-.9 5.1-5 8-9.6 2.7-4.4 5.8-9.4 9-11.2 5.6 10.8 12.2 20.9 18.2 27.7.2.3.5.5.8.6 1.6 1.6 4 3 5.3 3.8.3.2.5.3.7.4 9.4 6.4 20.2 9.6 32 9.6 21.4 0 39.5-10.5 42.9-12.7 13.5-8.4 22.7-20.2 26.7-34.3 3.3-13.4 1.8-27.9-4.9-40.6z"/><path d="M206.1 125.7c-7.7-14.7-18.7-19.7-30.3-25-6.6-3-13.4-6.1-20.2-11.2 0 0-1.6 3-2.7 3.8 7.1 5.3 14.1 8.5 20.9 11.6 11.3 5.2 21.1 9.7 28.1 22.9 12.7 24.1 4.2 52.6-20.2 67.7-4.6 2.8-45.5 26.8-76.4-2.9-13-15.9-29.6-47.8-29.4-71 0-.4-.1-.7-.2-1 .5.1.9.2 1.4.4.9.4 1.8 1.1 2.6 2 .5.5 1.3.1 1.2-.6-.2-1.3-.9-2.6-2.1-3.6-.9-.8-2.1-1.4-3.4-1.6-.6-.2-1.3-.1-1.9-.1-.6 0-1.2.2-1.8.4-2.2.8-3.7 2.3-4.8 3.9-.8 1.3-1.4 2.7-1.7 4.1-.1.6.4.9.8.5.4-.5 2.5-2.2 3.2-2.7.6-.5 1.2-.9 1.8-1.3v1.6c-23 16.4-22.6 73.8-3.7 67.2 5.1-1.8 10.7-18.4 17.6-21.1 5.6 10.9 12.3 21.2 18.5 28.3.2.2.4.4.7.5 2 1.9 5.2 3.7 5.9 4.2 10.4 7 21.3 9.5 31.5 9.5 21.3 0 39.4-10.6 42.5-12.5 13.3-8.3 22.4-20 26.3-33.8 3.9-13.5 2.3-27.7-4.2-40.2zM71.1 179c-4.1 8.6-9.1 5.2-11.3.2-2.4-5.5-1.8-14.6 2.4-15.1s5.7 4.1 5 7.7c0 0 3.5-6.4 7.1-2.7 2 2.1-.8 4.9-3.2 9.9z"/></g></g><path fill="#100F12" d="M720.6 47.5h3.1V178h-3.1z"/><g fill="#100F12"><path d="M769 167.1h-4.3l15.9-41.3h4.2l15.9 41.3h-4.3l-4.2-10.9h-19.1l-4.1 10.9zm21.9-14.6l-8.2-21.2-8.2 21.2h16.4zM811.9 125.8v41.3h-4v-41.3h4zM865.7 123.9v43.2h-4v-4.8c-2 3.4-6.3 5.4-10.6 5.4-4.1 0-7.5-1.4-10.3-4.1-2.7-2.7-4.1-6.2-4.1-10.6s1.4-7.9 4.1-10.5c2.8-2.7 6.2-4 10.3-4 4.3 0 8.6 1.9 10.6 5.2v-19.8h4zm-22 36.8c2 2 4.4 3 7.4 3s5.5-1 7.5-2.8c2-1.9 3.1-4.6 3.1-7.9 0-3.2-1.1-5.8-3.2-7.7-2.1-1.9-4.6-2.8-7.3-2.8-2.9 0-5.4 1-7.4 2.9s-2.9 4.4-2.9 7.6c-.1 3.1.9 5.7 2.8 7.7zM891.6 143.5c-1.3-.7-2.6-1-4.1-1-2.7 0-4.7 1.4-6.1 4.1-1.3 2.7-2 6.1-2 10.1v10.4h-4v-28h4v6.4c1.3-4.6 4-7 8-7 1.9 0 4 .6 4.6 1.1l-.4 3.9zM897.9 126.6c1.2-1.1 3.1-1.1 4.3 0 1.2 1 1.2 3 0 4.1-1.2 1-3.1 1-4.3 0-1.2-1.1-1.2-3.1 0-4.1zm.1 40.5v-28h4v28h-4zM908.3 139.1h4.2l9.5 23.3 9.5-23.3h4.3l-11.6 28h.1-4.3l-11.7-28zM943.4 163.6c-2.7-2.7-4-6.2-4-10.6s1.3-7.9 4-10.5c2.7-2.7 6.1-4 10.1-4s7.3 1.3 9.9 4 3.8 6.2 3.8 10.6c0 .9 0 1.5-.1 1.9h-23.8c.7 5.3 4.8 8.9 10.1 8.9 3.8 0 7-1.8 8.8-4.9.4.1 1.1.3 2 .5l2 .4c-2.2 5-7.1 7.9-12.8 7.9-3.9-.1-7.3-1.5-10-4.2zm19.8-12.4c-.8-5.3-4.6-8.7-9.7-8.7-5.3 0-9.3 3.4-10.1 8.7h19.8zM978.7 167.1h-4v-28h4v4.6c1.6-3.4 5.7-5.2 9.3-5.2 6.8 0 10.9 4.6 10.8 12.3v16.3h-4v-16.3c0-5.2-2.5-8.3-6.8-8.3-2.5 0-4.7.8-6.5 2.3-1.9 1.5-2.8 3.8-2.8 7v15.3zM1028.1 123.9v43.2h-4v-43.2h4zM1040.1 142.5c2.8-2.7 6.3-4 10.4-4s7.6 1.3 10.4 4c2.8 2.7 4.3 6.2 4.3 10.5 0 4.4-1.4 7.9-4.3 10.6-2.8 2.7-6.3 4.1-10.4 4.1s-7.6-1.4-10.4-4.1c-2.8-2.7-4.3-6.2-4.3-10.6.1-4.3 1.5-7.8 4.3-10.5zm10.5 21.3c3 0 5.5-1 7.6-3 2.1-2 3.1-4.6 3.1-7.7s-1-5.7-3.1-7.6c-2-2-4.6-2.9-7.6-2.9s-5.5 1-7.6 2.9c-2 1.9-3.1 4.4-3.1 7.6s1 5.8 3.1 7.7c2 1.9 4.6 3 7.6 3zM1076.4 172.2c2 3.3 4.9 5 8.6 5 7 0 11-4.3 11-15.1-1.7 3.5-6.2 5.7-10.6 5.7-4.1 0-7.5-1.3-10.3-4-2.7-2.7-4.1-6.2-4.1-10.6 0-4.4 1.4-7.9 4.1-10.6 2.8-2.7 6.2-4.1 10.3-4.1 4.3 0 8.6 2 10.6 5.4v-4.8h4v23.6c0 12.3-5 18.4-15 18.4-4.9 0-9.4-2.3-12.1-7l3.5-1.9zm1.6-11.4c2 1.9 4.4 2.9 7.4 2.9 2.8 0 5.2-1 7.3-2.8 2.2-1.9 3.2-4.4 3.2-7.7s-1-5.9-3.1-7.8c-2-1.9-4.5-2.9-7.5-2.9-2.9 0-5.4 1-7.4 3.1-2 2-2.9 4.6-2.9 7.6.1 3.2 1.1 5.7 3 7.6zM1111.9 142.5c2.8-2.7 6.3-4 10.4-4s7.6 1.3 10.4 4c2.8 2.7 4.3 6.2 4.3 10.5 0 4.4-1.4 7.9-4.3 10.6-2.8 2.7-6.3 4.1-10.4 4.1s-7.6-1.4-10.4-4.1c-2.8-2.7-4.3-6.2-4.3-10.6.1-4.3 1.5-7.8 4.3-10.5zm10.5 21.3c3 0 5.5-1 7.6-3 2.1-2 3.1-4.6 3.1-7.7s-1-5.7-3.1-7.6c-2-2-4.6-2.9-7.6-2.9s-5.5 1-7.6 2.9c-2 1.9-3.1 4.4-3.1 7.6s1 5.8 3.1 7.7c2.1 1.9 4.6 3 7.6 3zM1187.8 123.9v43.2h-4v-4.8c-2 3.4-6.3 5.4-10.6 5.4-4.1 0-7.5-1.4-10.3-4.1-2.7-2.7-4.1-6.2-4.1-10.6s1.4-7.9 4.1-10.5c2.8-2.7 6.2-4 10.3-4 4.3 0 8.6 1.9 10.6 5.2v-19.8h4zm-22 36.8c2 2 4.4 3 7.4 3s5.5-1 7.5-2.8c2-1.9 3.1-4.6 3.1-7.9 0-3.2-1.1-5.8-3.2-7.7-2.1-1.9-4.6-2.8-7.3-2.8-2.9 0-5.4 1-7.4 2.9s-2.9 4.4-2.9 7.6c-.1 3.1.8 5.7 2.8 7.7zM1199.6 163.6c-2.7-2.7-4-6.2-4-10.6s1.3-7.9 4-10.5c2.7-2.7 6.1-4 10.1-4s7.3 1.3 9.9 4 3.8 6.2 3.8 10.6c0 .9 0 1.5-.1 1.9h-23.8c.7 5.3 4.8 8.9 10.1 8.9 3.8 0 7-1.8 8.8-4.9.4.1 1.1.3 2 .5l2 .4c-2.2 5-7.1 7.9-12.8 7.9-3.9-.1-7.3-1.5-10-4.2zm19.8-12.4c-.8-5.3-4.6-8.7-9.7-8.7-5.3 0-9.3 3.4-10.1 8.7h19.8zM1232.2 159.1c.8 3.2 3.1 4.9 6.6 4.9 3.6 0 5.9-1.8 5.9-4.4 0-2.2-1.3-3.7-4-4.3l-3.9-.9c-2.1-.5-3.4-1.1-5.1-2.3-1.6-1.4-2.3-3.7-2-6.8.5-3.9 4.5-6.7 9.1-6.7s8.1 2.4 8.8 7.3h-3.9c-.5-2.1-2.5-3.4-4.9-3.4-2.7 0-4.9 1.4-5.2 3.4-.4 2.3 1 3.9 4.1 4.7l3.8.9c4.7 1.1 7.1 3.8 7.1 8.2 0 2.4-1 4.4-2.9 5.9-2 1.5-4.4 2.3-7.3 2.3-2.5 0-4.7-.8-6.7-2.3-1.9-1.6-2.9-3.7-3.1-6.3h3.6zM1256.2 126.6c1.2-1.1 3.1-1.1 4.3 0 1.2 1 1.2 3 0 4.1-1.2 1-3.1 1-4.3 0-1.2-1.1-1.2-3.1 0-4.1zm.1 40.5v-28h4v28h-4zM1273.4 172.2c2 3.3 4.9 5 8.6 5 7 0 11-4.3 11-15.1-1.7 3.5-6.2 5.7-10.6 5.7-4.1 0-7.5-1.3-10.3-4-2.7-2.7-4.1-6.2-4.1-10.6 0-4.4 1.4-7.9 4.1-10.6 2.8-2.7 6.2-4.1 10.3-4.1 4.3 0 8.6 2 10.6 5.4v-4.8h4v23.6c0 12.3-5 18.4-15 18.4-4.9 0-9.4-2.3-12.1-7l3.5-1.9zm1.7-11.4c2 1.9 4.4 2.9 7.4 2.9 2.8 0 5.2-1 7.3-2.8 2.2-1.9 3.2-4.4 3.2-7.7s-1-5.9-3.1-7.8c-2-1.9-4.5-2.9-7.5-2.9-2.9 0-5.4 1-7.4 3.1-2 2-2.9 4.6-2.9 7.6 0 3.2 1 5.7 3 7.6zM1310.7 167.1h-4v-28h4v4.6c1.6-3.4 5.7-5.2 9.3-5.2 6.8 0 10.9 4.6 10.8 12.3v16.3h-4v-16.3c0-5.2-2.5-8.3-6.8-8.3-2.5 0-4.7.8-6.5 2.3-1.9 1.5-2.8 3.8-2.8 7v15.3z"/></g><path fill="#100F12" d="M755.769 167.666l54.59-48.01 1.981 2.252-54.59 48.01z"/><g fill="#100F12"><path d="M824.9 99.5c.1.3.1.6.1.9 0 .7-.2 1.3-.6 1.8-.8 1-2 1.5-3.6 1.5h-.4c-1-.1-2.5-.4-4.4-1-1.1-.3-1.9-.6-2.4-.7-1.8-.4-4.6-.8-8.4-1.1-1.8-.1-3.1-.3-4-.4-4.9-.5-12.3-.9-22.1-1.2l-2.8-.1c-.5 0-1.8.2-3.6.6-3.2.7-5.5 1-7 1-1.8 0-3.1-.4-3.8-1.2-.5-.5-.7-1.2-.7-2.1 0-.2 0-.5.1-.8.2-1.1.8-2 1.9-2.8.7-.5 1.7-1.3 3.1-2.3 1.2-.5 2-.9 2.4-1.1 3.7-2.5 7.5-5.1 11.1-7.8 7.1-5.3 13.7-10.7 19.8-16.2-6.3.5-13.7 1.6-22.2 3.3-.3 0-.7.2-1.4.4-1.3.4-2.2.6-2.8.6-1.1-.3-1.9-.9-2.3-1.9-.4-.8-.5-1.7-.5-2.6v-.5c.1-1.3.6-2.2 1.4-2.7.5-.3 1.3-.5 2.5-.5.7 0 1.7.1 3.2.2 1.2.1 2.1.2 2.7.2h.4c1.6-.2 3.9-.6 7-1.2 1.6-.3 2.8-.5 3.6-.7l3-.5c8.3-1.4 14.6-2.2 18.9-2.4.6 0 1.1.5 1.4 1.5.2.7.3 1.3.3 2-.1.7-.9 1.6-2.5 2.5-.2.2-.4.3-.4.3-2.6 1.8-5.7 4.4-9.2 7.8-4.6 4.5-11.9 10.5-22 18.1-1.3 1-2 1.7-2 2 0 .2.2.3.6.3 1.1 0 3.9.1 8.6.3 14.8.4 25.7 1.5 32.7 3.2 2.4.8 3.9 1.9 4.3 3.3z"/><path d="M843.7 89.9c1.1-.8 1.9-1.2 2.5-1.2s.8.4.8 1.3c-.4 2.6-1.8 5.3-4.3 8.1-2.4 2.7-4.9 4.5-7.5 5.4-.9.2-1.8.3-2.7.3-4.5 0-8.6-2.5-12.3-7.6-1.3-1.7-1.9-4.1-1.9-7.1 0-1.3.1-2.6.3-4.1.4-2.7 2.6-4.5 6.5-5.4.5-.1 1.1-.2 1.6-.2 1.4 0 2.7.5 4 1.4 1.4 1 2.6 2.6 3.6 4.6.3.9.4 1.8.4 2.6 0 2.4-1.1 4.3-3.4 5.8-.4.2-.9.5-1.5.7-.7.2-1.1.4-1.2.5-.3.2-.5.4-.5.6 0 .3.3.8.8 1.3 1.1 1.2 2.3 1.7 3.7 1.7.4 0 .8 0 1.2-.1 1.8-.4 3.6-1.6 5.3-3.7 2.4-2.8 3.9-4.4 4.6-4.9zm-18.2 1.9c1 0 1.8-.3 2.4-1 .6-.6.9-1.4 1-2.3V88c0-.7-.2-1.4-.5-1.9-.5-.8-1.2-1.2-2.1-1.3h-.3c-.6 0-1.1.3-1.4.8-.3.5-.5 1.2-.5 2.1-.1 2 .4 3.4 1.4 4.1z"/><path d="M871.6 85.5c0 .4 0 .9-.1 1.3-.3 2.9-1 5.3-2.2 7.3-1.5 2.5-3.4 4.6-5.8 6.3-2.5 1.8-5.1 2.9-7.9 3.2-.6.1-1.1.1-1.6.1-1.8 0-3.3-.5-4.6-1.4-1.6-1.2-2.4-2.9-2.4-5.2V96c0-1.2-.1-3.9-.2-7.9-.1-3-.2-5.7-.2-8 0-1.5 0-2.8.1-4 .4-9.9 2.3-14.8 5.7-14.8h.3c1.2 0 1.7.8 1.7 2.4 0 .6-.1 1.4-.3 2.2-.2.9-.5 2-1 3.5-.4 1.3-.6 2.1-.6 2.3-.2 2.1-.3 4-.3 5.8 0 2.8.3 5.1.8 7.2 1.9-2.3 4.3-3.7 7.2-4.2.9-.2 1.9-.3 3-.3 1.6 0 3.5.2 5.5.5 2 .6 2.9 2.1 2.9 4.8zm-8.9 8.6c.7-.7 1.4-1.8 2-3.3.4-.9.6-1.7.6-2.4 0-.5-.1-.9-.4-1.3-.8-.1-1.5-.2-2.2-.2-2.4 0-4.4.8-5.9 2.4-1.8 1.9-2.7 4.7-2.8 8.2 4-.4 6.9-1.6 8.7-3.4zM895.5 79.8c.8.6 1.2 1.2 1.2 1.9 0 .2 0 .3-.1.5-3.1 1.6-5.7 3.8-7.8 6.5-2.3 3-3.9 6.6-4.8 10.6-.6 3-1.6 4.4-2.8 4.4-.5 0-1.1-.3-1.7-.8-1.5-1.4-2.7-4.1-3.6-8.1-.7-3.2-1-6.3-1-9.3.3-1.2.8-2.1 1.4-2.5.3-.2.6-.3.9-.3.3 0 .7.1 1 .3 1.7 1 2.6 3.4 2.9 7.2.6-2.3 2.1-4.7 4.3-7.2 2.6-2.8 5.1-4.3 7.5-4.3.9.1 1.7.4 2.6 1.1zM923.4 97.1c1.1 1.5 1.6 2.8 1.6 3.8-.1.7-.6 1.4-1.4 2-.8.6-1.6.9-2.5.9-.7 0-1.3-.2-1.8-.7-1-.9-1.9-2.7-2.8-5.3-.6-2.1-1.3-3.5-1.9-4.3-.1.2-.3.5-.6 1-1.6 2.6-3 4.5-4 5.6-1.8 2-3.7 3.2-5.7 3.6-.6.1-1.1.2-1.7.2-1.5 0-2.8-.5-3.8-1.5s-1.5-2.3-1.6-4c0-3.4 2.2-7.7 6.5-12.7 5.6-4.5 9.8-6.8 12.7-6.8h.2c1.2 0 2.1 1.1 2.7 3.3.4 1.2.7 3.2 1.1 5.8.1.9.2 1.5.2 1.7 0 .2.1.6.3 1.2.4 2.1.8 3.6 1.2 4.5.3.3.7.9 1.3 1.7zM912 86.2c-.1-.1-.2-.1-.3-.1-.5 0-1.2.5-2.1 1.4-1.1 1.2-2.2 2.9-3.4 5-1 1.9-1.6 3.4-1.8 4.4 1.6-.4 3.2-1.9 4.9-4.4 1.8-2.4 2.6-4.5 2.7-6.3z"/></g></svg>